<?xml version="1.0" encoding="utf-8"?>
<!-- Generator: Adobe Illustrator 24.0.2, SVG Export Plug-In . SVG Version: 6.00 Build 0)  -->
<svg version="1.1" id="Capa_1" xmlns="http://www.w3.org/2000/svg" xmlns:xlink="http://www.w3.org/1999/xlink" x="0px" y="0px"
	 viewBox="0 0 882 358" style="enable-background:new 0 0 882 358;" xml:space="preserve">
<style type="text/css">
	.st0{clip-path:url(#SVGID_2_);fill:#1D1E1C;}
	.st1{clip-path:url(#SVGID_2_);fill:#9CA0A6;}
	.st2{clip-path:url(#SVGID_2_);fill:#0571A3;}
</style>
<g>
	<defs>
		<rect id="SVGID_1_" x="40.2" y="14.9" width="801.7" height="320.8"/>
	</defs>
	<clipPath id="SVGID_2_">
		<use xlink:href="#SVGID_1_"  style="overflow:visible;"/>
	</clipPath>
	<path class="st0" d="M250.4,188.4l15.7-2.5c0.9,6.3,3.3,11.1,7.4,14.5c4,3.4,9.7,5,16.9,5c7.3,0,12.7-1.5,16.3-4.5
		c3.5-3,5.3-6.5,5.3-10.5c0-3.6-1.6-6.4-4.7-8.5c-2.2-1.4-7.6-3.2-16.3-5.4c-11.7-2.9-19.8-5.5-24.3-7.6c-4.5-2.2-7.9-5.1-10.3-8.9
		c-2.3-3.8-3.5-8-3.5-12.6c0-4.2,1-8.1,2.9-11.6c1.9-3.6,4.5-6.5,7.8-8.9c2.5-1.8,5.8-3.4,10.1-4.6c4.3-1.3,8.8-1.9,13.7-1.9
		c7.4,0,13.8,1.1,19.4,3.2c5.6,2.1,9.7,5,12.3,8.6c2.7,3.6,4.5,8.5,5.5,14.5l-15.6,2.1c-0.7-4.8-2.8-8.6-6.1-11.3
		c-3.4-2.7-8.2-4.1-14.4-4.1c-7.3,0-12.5,1.2-15.6,3.6c-3.1,2.4-4.7,5.2-4.7,8.5c0,2.1,0.6,3.9,1.9,5.6c1.3,1.7,3.3,3.1,6.1,4.2
		c1.6,0.6,6.3,1.9,14.1,4.1c11.3,3,19.1,5.5,23.6,7.4c4.4,1.9,7.9,4.7,10.5,8.4c2.5,3.7,3.8,8.2,3.8,13.6c0,5.3-1.5,10.3-4.6,15
		c-3.1,4.7-7.6,8.3-13.4,10.9c-5.8,2.6-12.4,3.8-19.8,3.8c-12.2,0-21.5-2.5-27.9-7.6C256.3,205.8,252.2,198.3,250.4,188.4"/>
	<path class="st0" d="M408.5,204.8c-5.9,5-11.6,8.5-17,10.6c-5.4,2.1-11.3,3.1-17.5,3.1c-10.3,0-18.2-2.5-23.8-7.6
		c-5.5-5-8.3-11.5-8.3-19.3c0-4.6,1-8.8,3.1-12.6c2.1-3.8,4.8-6.8,8.2-9.1c3.4-2.3,7.2-4,11.4-5.2c3.1-0.8,7.8-1.6,14.1-2.4
		c12.8-1.5,22.3-3.4,28.4-5.5c0.1-2.2,0.1-3.6,0.1-4.2c0-6.5-1.5-11-4.5-13.7c-4.1-3.6-10.1-5.4-18.1-5.4c-7.5,0-13,1.3-16.6,3.9
		c-3.6,2.6-6.2,7.3-7.9,13.9l-15.6-2.1c1.4-6.7,3.7-12,7-16.1c3.2-4.1,7.9-7.2,14.1-9.5c6.1-2.2,13.2-3.3,21.3-3.3
		c8,0,14.5,0.9,19.5,2.8c5,1.9,8.7,4.3,11,7.1c2.4,2.9,4,6.5,4.9,10.8c0.5,2.7,0.8,7.6,0.8,14.7V177c0,14.8,0.3,24.1,1,28.1
		c0.7,3.9,2,7.7,4,11.3h-16.6C410.1,213.1,409,209.2,408.5,204.8 M407.2,169.3c-5.8,2.4-14.4,4.4-26,6c-6.5,0.9-11.2,2-13.9,3.2
		c-2.7,1.2-4.8,2.9-6.3,5.2c-1.5,2.3-2.2,4.8-2.2,7.6c0,4.2,1.6,7.8,4.8,10.6c3.2,2.8,7.9,4.2,14.1,4.2c6.1,0,11.6-1.3,16.3-4
		c4.8-2.7,8.3-6.3,10.5-11c1.7-3.6,2.6-8.9,2.6-15.9V169.3z"/>
	<path class="st0" d="M482.7,202.1l2.3,14.1c-4.5,0.9-8.5,1.4-12,1.4c-5.8,0-10.3-0.9-13.4-2.7c-3.2-1.8-5.4-4.2-6.7-7.2
		c-1.3-3-1.9-9.2-1.9-18.8v-54h-11.7v-12.4h11.7V99.3l15.8-9.5v32.8h16v12.4h-16v54.9c0,4.5,0.3,7.5,0.8,8.7
		c0.6,1.3,1.5,2.3,2.7,3.1c1.3,0.8,3.1,1.1,5.4,1.1C477.5,202.8,479.8,202.6,482.7,202.1"/>
	<path class="st0" d="M559.7,216.4v-13.8c-7.3,10.6-17.2,15.9-29.8,15.9c-5.5,0-10.7-1.1-15.5-3.2c-4.8-2.1-8.4-4.8-10.7-8
		c-2.3-3.2-4-7.1-4.9-11.8c-0.6-3.1-1-8.1-1-14.8v-58.1h15.9v52.1c0,8.3,0.3,13.9,1,16.8c1,4.2,3.1,7.5,6.4,9.9
		c3.2,2.4,7.2,3.6,12,3.6c4.8,0,9.2-1.2,13.4-3.7c4.2-2.4,7.1-5.8,8.9-10c1.7-4.2,2.6-10.3,2.6-18.3v-50.3H574v93.9H559.7z"/>
	<path class="st0" d="M598.7,216.4v-93.9H613v14.2c3.7-6.7,7-11,10.1-13.2c3.1-2.1,6.5-3.2,10.2-3.2c5.4,0,10.8,1.7,16.4,5.1
		l-5.5,14.8c-3.9-2.3-7.8-3.4-11.7-3.4c-3.5,0-6.6,1-9.4,3.1c-2.8,2.1-4.7,5-5.9,8.7c-1.8,5.7-2.7,11.8-2.7,18.6v49.1H598.7z"/>
	<path class="st0" d="M659.2,216.4v-93.9h14.3v13.3c6.9-10.3,16.8-15.5,29.9-15.5c5.7,0,10.9,1,15.6,3.1c4.7,2,8.3,4.7,10.6,8
		c2.4,3.3,4,7.2,4.9,11.8c0.6,2.9,0.9,8.1,0.9,15.5v57.7h-15.9v-57.1c0-6.5-0.6-11.3-1.9-14.5c-1.2-3.2-3.4-5.8-6.6-7.7
		c-3.2-1.9-6.9-2.9-11.1-2.9c-6.8,0-12.6,2.2-17.5,6.4c-4.9,4.3-7.4,12.5-7.4,24.5v51.3H659.2z"/>
	<path class="st0" d="M753.9,169.4c0-17.4,4.8-30.3,14.5-38.6c8.1-7,17.9-10.4,29.5-10.4c12.9,0,23.4,4.2,31.6,12.7
		c8.2,8.5,12.3,20.1,12.3,35c0,12.1-1.8,21.6-5.4,28.5c-3.6,6.9-8.9,12.3-15.8,16.1c-6.9,3.8-14.5,5.7-22.7,5.7
		c-13.1,0-23.8-4.2-31.9-12.6C757.9,197.4,753.9,185.3,753.9,169.4 M770.2,169.4c0,12,2.6,21,7.9,27c5.2,6,11.8,9,19.8,9
		c7.9,0,14.5-3,19.7-9c5.2-6,7.9-15.2,7.9-27.5c0-11.6-2.6-20.4-7.9-26.4c-5.3-6-11.8-9-19.7-9c-8,0-14.6,3-19.8,8.9
		C772.9,148.4,770.2,157.4,770.2,169.4"/>
	<path class="st1" d="M169.1,302.8c-68.5,29.8-118,41-127.3,25.5c-9-14.9,21.2-51.3,75.6-95.8c-36.3,34.5-54.6,63.2-46,77.5
		C80.5,325.2,117.6,321.3,169.1,302.8"/>
	<path class="st1" d="M473.5,117.8l-1-1c34.6-33.4,51.8-61,43.3-75c-9.1-15-45.9-11.2-97.1,7C488.8,18,539.7,6.3,549.2,22
		C558.2,36.9,527.9,73.3,473.5,117.8"/>
	<polygon class="st0" points="467.7,276.5 467.7,256.8 460.4,256.8 460.4,254.1 478.1,254.1 478.1,256.8 470.7,256.8 470.7,276.5 	
		"/>
	<path class="st0" d="M494.4,276.5v-22.4h9.9c2,0,3.5,0.2,4.6,0.6c1,0.4,1.9,1.1,2.5,2.1c0.6,1,0.9,2.1,0.9,3.4c0,1.6-0.5,2.9-1.5,4
		c-1,1.1-2.6,1.8-4.8,2.1c0.8,0.4,1.4,0.7,1.8,1.1c0.9,0.8,1.7,1.8,2.5,3l3.9,6.1h-3.7l-3-4.7c-0.9-1.3-1.6-2.4-2.1-3.1
		c-0.6-0.7-1.1-1.2-1.5-1.5c-0.4-0.3-0.9-0.5-1.4-0.6c-0.3-0.1-0.9-0.1-1.7-0.1h-3.4v10H494.4z M497.3,264h6.4
		c1.4,0,2.4-0.1,3.2-0.4c0.8-0.3,1.3-0.7,1.7-1.3c0.4-0.6,0.6-1.3,0.6-2c0-1.1-0.4-1.9-1.2-2.6c-0.8-0.7-2-1-3.6-1h-7.1V264z"/>
	<path class="st0" d="M527.6,276.5l8.6-22.4h3.2l9.2,22.4h-3.4l-2.6-6.8h-9.4l-2.5,6.8H527.6z M534.1,267.3h7.6l-2.3-6.2
		c-0.7-1.9-1.2-3.4-1.6-4.7c-0.3,1.4-0.7,2.9-1.2,4.3L534.1,267.3z"/>
	<polygon class="st0" points="564.1,276.5 564.1,254.1 567.2,254.1 578.9,271.7 578.9,254.1 581.8,254.1 581.8,276.5 578.7,276.5 
		567,258.9 567,276.5 	"/>
	<path class="st0" d="M598.9,269.3l2.8-0.2c0.1,1.1,0.4,2,0.9,2.8c0.5,0.7,1.2,1.3,2.3,1.7c1,0.4,2.2,0.7,3.4,0.7
		c1.1,0,2.1-0.2,3-0.5c0.9-0.3,1.5-0.8,1.9-1.4c0.4-0.6,0.6-1.2,0.6-1.9c0-0.7-0.2-1.3-0.6-1.8c-0.4-0.5-1.1-1-2-1.3
		c-0.6-0.2-1.9-0.6-4-1.1c-2.1-0.5-3.5-1-4.3-1.4c-1.1-0.6-1.9-1.3-2.4-2.1c-0.5-0.8-0.8-1.8-0.8-2.8c0-1.1,0.3-2.2,1-3.2
		c0.6-1,1.6-1.7,2.8-2.2c1.2-0.5,2.6-0.8,4.1-0.8c1.7,0,3.1,0.3,4.4,0.8c1.3,0.5,2.2,1.3,2.9,2.4c0.7,1,1.1,2.2,1.1,3.5l-2.8,0.2
		c-0.2-1.4-0.7-2.5-1.6-3.2c-0.9-0.7-2.2-1.1-3.9-1.1c-1.8,0-3.1,0.3-3.9,1c-0.8,0.7-1.2,1.5-1.2,2.4c0,0.8,0.3,1.5,0.9,2
		c0.6,0.5,2.1,1.1,4.5,1.6c2.4,0.5,4.1,1,5,1.4c1.3,0.6,2.3,1.4,2.9,2.3c0.6,0.9,0.9,2,0.9,3.2c0,1.2-0.3,2.3-1,3.4
		c-0.7,1.1-1.7,1.9-2.9,2.5c-1.3,0.6-2.7,0.9-4.3,0.9c-2,0-3.7-0.3-5.1-0.9c-1.4-0.6-2.4-1.5-3.2-2.7
		C599.4,272.2,599,270.8,598.9,269.3"/>
	<path class="st0" d="M634,276.5v-22.4h8.5c1.5,0,2.6,0.1,3.4,0.2c1.1,0.2,2,0.5,2.8,1c0.7,0.5,1.3,1.2,1.8,2.2
		c0.5,0.9,0.7,1.9,0.7,3.1c0,1.9-0.6,3.5-1.8,4.8s-3.4,2-6.6,2H637v9.1H634z M637,264.8h5.8c1.9,0,3.3-0.4,4.1-1.1
		c0.8-0.7,1.2-1.7,1.2-3c0-0.9-0.2-1.7-0.7-2.4c-0.5-0.7-1.1-1.1-1.9-1.3c-0.5-0.1-1.4-0.2-2.8-0.2H637V264.8z"/>
	<path class="st0" d="M667.1,265.6c0-3.7,1-6.6,3-8.7c2-2.1,4.6-3.2,7.7-3.2c2.1,0,3.9,0.5,5.6,1.5c1.7,1,2.9,2.4,3.8,4.1
		c0.9,1.8,1.3,3.8,1.3,6c0,2.3-0.5,4.3-1.4,6.1c-0.9,1.8-2.2,3.2-3.9,4.1c-1.7,0.9-3.5,1.4-5.4,1.4c-2.1,0-4-0.5-5.7-1.5
		c-1.7-1-2.9-2.4-3.8-4.2C667.6,269.4,667.1,267.6,667.1,265.6 M670.2,265.7c0,2.7,0.7,4.8,2.2,6.4c1.5,1.6,3.3,2.3,5.5,2.3
		c2.2,0,4.1-0.8,5.5-2.4c1.4-1.6,2.2-3.8,2.2-6.7c0-1.8-0.3-3.4-0.9-4.8c-0.6-1.4-1.5-2.4-2.7-3.2c-1.2-0.8-2.5-1.1-4-1.1
		c-2.1,0-3.9,0.7-5.4,2.2C670.9,259.9,670.2,262.3,670.2,265.7"/>
	<path class="st0" d="M705.6,276.5v-22.4h9.9c2,0,3.5,0.2,4.6,0.6c1,0.4,1.9,1.1,2.5,2.1c0.6,1,0.9,2.1,0.9,3.4c0,1.6-0.5,2.9-1.5,4
		c-1,1.1-2.6,1.8-4.8,2.1c0.8,0.4,1.4,0.7,1.8,1.1c0.9,0.8,1.7,1.8,2.5,3l3.9,6.1h-3.7l-3-4.7c-0.9-1.3-1.6-2.4-2.1-3.1
		c-0.6-0.7-1.1-1.2-1.5-1.5c-0.4-0.3-0.9-0.5-1.4-0.6c-0.3-0.1-0.9-0.1-1.7-0.1h-3.4v10H705.6z M708.6,264h6.4
		c1.4,0,2.4-0.1,3.2-0.4c0.8-0.3,1.3-0.7,1.7-1.3c0.4-0.6,0.6-1.3,0.6-2c0-1.1-0.4-1.9-1.2-2.6c-0.8-0.7-2-1-3.7-1h-7.1V264z"/>
	<polygon class="st0" points="746.5,276.5 746.5,256.8 739.1,256.8 739.1,254.1 756.9,254.1 756.9,256.8 749.4,256.8 749.4,276.5 	
		"/>
	<polygon class="st0" points="773.1,276.5 773.1,254.1 789.3,254.1 789.3,256.8 776.1,256.8 776.1,263.6 788.5,263.6 788.5,266.2 
		776.1,266.2 776.1,273.9 789.8,273.9 789.8,276.5 	"/>
	<path class="st0" d="M806.7,269.3l2.8-0.2c0.1,1.1,0.4,2,0.9,2.8c0.5,0.7,1.2,1.3,2.3,1.7c1,0.4,2.2,0.7,3.4,0.7
		c1.1,0,2.1-0.2,3-0.5c0.9-0.3,1.5-0.8,1.9-1.4c0.4-0.6,0.6-1.2,0.6-1.9c0-0.7-0.2-1.3-0.6-1.8c-0.4-0.5-1.1-1-2-1.3
		c-0.6-0.2-1.9-0.6-4-1.1c-2.1-0.5-3.5-1-4.3-1.4c-1.1-0.6-1.9-1.3-2.4-2.1c-0.5-0.8-0.8-1.8-0.8-2.8c0-1.1,0.3-2.2,1-3.2
		c0.6-1,1.6-1.7,2.8-2.2c1.2-0.5,2.6-0.8,4.1-0.8c1.7,0,3.1,0.3,4.4,0.8c1.3,0.5,2.2,1.3,2.9,2.4c0.7,1,1.1,2.2,1.1,3.5l-2.8,0.2
		c-0.2-1.4-0.7-2.5-1.6-3.2c-0.9-0.7-2.2-1.1-3.9-1.1c-1.8,0-3.1,0.3-3.9,1c-0.8,0.7-1.2,1.5-1.2,2.4c0,0.8,0.3,1.5,0.9,2
		c0.6,0.5,2.1,1.1,4.5,1.6c2.4,0.5,4.1,1,5,1.4c1.3,0.6,2.3,1.4,2.9,2.3c0.6,0.9,0.9,2,0.9,3.2c0,1.2-0.3,2.3-1,3.4
		c-0.7,1.1-1.7,1.9-2.9,2.5c-1.3,0.6-2.7,0.9-4.3,0.9c-2,0-3.7-0.3-5.1-0.9c-1.4-0.6-2.4-1.5-3.2-2.7
		C807.2,272.2,806.8,270.8,806.7,269.3"/>
	<path class="st2" d="M428.1,240.3c-25.2,56.6-82.2,96-148.3,95.3c-85.9-0.9-156.6-70.5-158.7-156.4
		c-2.2-90.4,70.5-164.3,160.3-164.3c38.9,0,74.6,13.9,102.4,36.9c-21.6-13.9-47.3-21.9-74.9-21.9C231.4,29.9,168.8,93.3,170,171
		c1.1,73.9,61.1,134.6,134.9,136.7C357.2,309.2,403.1,281.8,428.1,240.3"/>
</g>
</svg>
